<?xml version="1.0" standalone="no"?>
<!DOCTYPE svg PUBLIC "-//W3C//DTD SVG 20010904//EN"
 "http://www.w3.org/TR/2001/REC-SVG-20010904/DTD/svg10.dtd">
<svg version="1.0" xmlns="http://www.w3.org/2000/svg"
 width="512.000000pt" height="504.000000pt" viewBox="0 0 512.000000 504.000000"
 preserveAspectRatio="xMidYMid meet">

<g transform="translate(0.000000,504.000000) scale(0.100000,-0.100000)"
fill="#000000" stroke="none">
<path d="M0 3914 c0 -1061 1 -1128 17 -1140 17 -13 17 -13 1 -14 -28 0 -24
-54 4 -68 l23 -11 -23 0 -22 -1 0 -625 0 -625 43 -1 c23 -1 47 -2 52 -4 6 -1
15 -3 20 -4 17 -5 -38 -19 -77 -20 -27 -1 -38 -6 -38 -16 0 -20 51 -20 105 0
22 8 63 14 90 15 28 0 72 7 99 15 27 8 66 15 87 15 24 0 39 5 43 16 9 22 8 24
-9 24 -8 0 -15 7 -15 15 0 8 6 15 14 15 7 0 49 12 92 26 44 14 90 28 103 30
13 3 36 11 50 19 25 13 23 13 -24 9 -27 -3 -51 -10 -53 -15 -5 -12 -62 -12
-62 1 0 6 15 11 33 11 l32 2 -35 6 -35 7 30 6 c16 3 32 2 35 -2 3 -5 23 -4 45
1 22 6 52 13 68 16 15 3 30 9 33 14 3 5 20 9 39 9 20 0 35 6 39 15 3 8 11 15
19 15 9 0 12 11 10 37 -2 21 0 32 3 26 8 -18 44 -16 44 3 0 8 5 12 10 9 6 -3
10 -2 10 4 0 13 -41 24 -96 25 -48 1 -38 12 21 21 85 14 179 54 128 55 -14 1
-13 4 7 15 32 18 41 19 34 1 -4 -10 0 -13 13 -11 63 13 73 17 73 30 0 8 6 15
13 15 19 0 95 39 77 40 -13 0 -13 1 0 10 13 8 12 10 -3 10 -10 0 -20 -7 -23
-15 -4 -9 -19 -15 -35 -15 -19 0 -29 -5 -29 -15 0 -18 -31 -20 -48 -3 -7 7 -8
17 -2 29 9 15 6 17 -17 13 -15 -3 -30 -8 -33 -11 -3 -3 5 -3 18 0 12 3 22 0
22 -5 0 -6 -12 -8 -29 -5 -33 7 -73 -2 -65 -14 3 -5 -2 -6 -10 -3 -9 3 -46 -4
-83 -16 -80 -26 -159 -47 -205 -55 -18 -3 -49 -10 -68 -15 -47 -12 -238 -10
-195 2 17 5 50 6 75 3 25 -3 59 -1 75 5 l30 10 -35 -5 c-22 -3 -30 -2 -20 4
25 14 110 23 110 12 0 -6 4 -11 9 -11 5 0 8 8 7 17 -1 11 10 20 32 26 35 11
55 2 32 -14 -17 -12 -18 -12 95 20 39 11 97 28 129 39 55 18 58 19 30 25 -16
3 -32 1 -35 -5 -4 -6 -12 -7 -18 -4 -6 4 -25 -2 -41 -14 -17 -12 -38 -20 -48
-17 -12 2 -8 8 18 20 34 16 34 16 5 11 -28 -6 -29 -5 -10 9 11 8 53 25 93 37
39 13 72 27 72 31 0 5 7 9 15 9 9 0 26 7 40 16 13 8 50 18 82 21 32 3 67 12
79 20 11 7 23 10 27 7 7 -7 221 75 225 87 2 5 12 9 23 9 22 0 69 28 69 41 0 5
-7 5 -17 2 -10 -4 -14 -2 -10 4 4 6 0 18 -8 26 -8 9 -15 23 -15 31 0 12 -11
16 -37 17 -37 1 -107 15 -89 18 5 0 3 7 -3 15 -9 11 -25 13 -59 9 -26 -3 -67
-6 -92 -7 -63 -3 -120 -16 -120 -28 0 -5 -17 -8 -37 -7 -21 1 -51 -4 -68 -13
-38 -19 -194 -52 -220 -46 -22 5 -15 10 40 24 l30 8 -32 4 c-29 3 -49 22 -23
22 6 0 10 5 10 10 0 6 -10 10 -22 10 -33 0 -55 15 -34 23 9 4 16 16 16 27 0
11 6 20 13 21 6 1 1 5 -13 9 l-25 8 27 1 c34 1 48 21 15 21 -42 0 -40 15 5 26
32 9 37 12 18 14 -19 1 -15 5 20 16 56 17 81 18 78 2 -3 -14 35 -23 58 -14 11
4 12 10 4 25 -9 18 -6 21 27 28 l38 7 -55 8 c-30 5 -83 5 -118 2 -62 -6 -63
-5 -50 15 7 12 19 19 25 16 7 -2 12 1 10 8 -3 16 -33 25 -92 26 -28 1 -56 6
-62 12 -6 6 -41 14 -78 17 -42 3 -62 8 -53 13 8 6 -5 9 -35 9 -27 0 -46 4 -43
9 4 5 -20 11 -51 14 -32 2 -69 7 -83 9 -79 15 -132 19 -126 10 3 -5 -1 -13
-10 -16 -23 -9 -31 -7 -14 4 20 12 10 19 -47 35 l-48 14 65 1 c36 0 85 3 110
7 36 4 41 7 25 14 -11 4 -39 8 -62 8 -23 1 -45 6 -48 11 -3 6 1 10 9 10 29 0
16 15 -29 33 -43 18 -59 36 -32 38 6 1 1 5 -13 10 -15 5 19 6 90 2 347 -19
462 -12 474 31 6 20 7 20 20 4 13 -18 60 -23 104 -12 45 13 13 54 -42 54 -32
0 -35 20 -3 21 15 0 17 2 7 6 -8 3 -17 10 -20 14 -6 8 -69 21 -190 40 -36 5
-69 11 -75 13 -5 2 69 3 165 2 182 -1 310 10 310 26 0 5 15 8 33 6 18 -2 31
-8 30 -15 -2 -7 4 -10 12 -7 8 4 15 15 15 25 0 17 12 23 47 22 7 -1 10 3 7 8
-3 5 -31 9 -62 10 -48 0 -109 13 -92 19 17 6 250 4 253 -2 4 -12 97 -22 97
-11 0 13 -56 37 -68 29 -6 -3 -25 1 -43 9 l-34 15 50 -2 c28 -1 60 -8 73 -16
12 -8 22 -10 22 -5 0 6 12 10 28 10 15 1 35 2 44 4 9 2 18 0 19 -6 3 -15 38
-37 49 -30 5 3 19 1 31 -6 16 -8 31 -8 59 0 23 7 47 7 68 2 24 -7 32 -6 32 3
0 13 61 76 73 76 4 0 7 -8 8 -17 0 -14 2 -15 5 -3 26 79 54 110 68 75 3 -8 12
-12 20 -9 12 5 13 10 3 32 -9 20 -9 26 1 30 6 2 12 12 12 23 0 10 5 19 10 19
6 0 10 20 10 45 0 25 4 51 10 58 5 7 22 28 38 47 21 25 31 50 35 89 4 29 11
59 18 67 6 8 9 20 6 28 -3 8 -1 17 6 20 9 3 8 8 -3 15 -12 8 -12 11 -1 11 11
0 11 3 2 14 -10 12 -9 19 6 35 51 56 57 68 64 137 4 43 13 69 28 85 11 12 21
29 21 37 0 7 11 28 24 45 13 18 26 46 29 62 l4 30 2 -33 c1 -30 2 -32 17 -18
8 9 20 16 25 16 5 0 9 7 9 15 0 9 9 15 25 15 19 0 25 5 25 23 0 28 17 47 36
40 8 -3 14 0 14 6 0 7 9 9 23 6 12 -3 36 -1 52 4 17 5 24 10 18 10 -27 2 -12
21 16 21 16 0 31 5 33 11 7 20 74 36 122 29 29 -4 47 -3 51 4 3 8 7 7 11 -1 3
-7 11 -10 18 -7 14 5 40 -15 49 -38 4 -10 8 -10 15 1 8 11 10 11 15 0 4 -10 6
-10 6 -1 1 19 21 14 21 -6 0 -10 12 -22 30 -29 19 -7 36 -24 45 -45 10 -24 14
-28 15 -13 1 19 1 19 19 -2 11 -13 30 -23 44 -23 18 0 29 -9 41 -32 24 -50 41
-68 62 -67 18 0 18 1 0 8 -19 7 -18 8 4 14 13 3 26 4 29 2 2 -3 -2 -5 -10 -5
-11 0 -11 -2 1 -10 10 -6 11 -10 3 -10 -17 0 -17 -25 0 -42 7 -7 16 -22 20
-33 16 -54 35 -96 49 -112 9 -10 18 -22 19 -28 1 -5 5 -19 9 -30 4 -11 14 -40
22 -65 14 -43 16 -45 54 -43 l39 1 -35 -6 c-42 -8 -51 -37 -20 -72 11 -12 20
-33 20 -46 0 -12 14 -38 30 -56 17 -18 28 -38 26 -45 -3 -7 4 -17 14 -23 11
-6 20 -17 20 -25 0 -8 13 -22 30 -31 17 -11 32 -30 35 -46 4 -18 13 -28 25
-28 20 0 30 -19 30 -60 0 -16 5 -32 10 -35 6 -3 10 -16 10 -29 0 -24 28 -56
49 -56 9 0 11 -8 8 -22 -8 -31 14 -58 40 -52 13 4 22 0 26 -10 4 -11 1 -14
-11 -10 -9 2 -7 -1 6 -7 23 -13 30 -29 11 -29 -5 0 -7 -5 -3 -11 4 -8 9 -7 15
2 4 7 11 10 15 6 4 -4 -2 -14 -13 -22 -23 -16 -36 -72 -19 -79 7 -3 8 -7 1
-13 -12 -10 -12 -57 -1 -60 5 -1 14 -12 20 -25 7 -15 22 -24 41 -26 55 -5 60
-11 37 -33 -23 -21 -29 -39 -13 -39 5 0 11 4 13 10 2 6 9 5 18 -1 11 -8 12
-12 3 -16 -25 -9 -13 -22 17 -18 26 3 30 0 30 -21 0 -17 5 -24 20 -24 11 0 28
-4 38 -9 26 -13 86 -31 108 -32 18 0 18 -1 -1 -9 -18 -8 -17 -9 7 -9 15 -1 30
-5 33 -11 3 -5 15 -10 26 -10 10 0 19 5 19 10 0 6 5 10 10 10 6 0 10 -6 10
-13 0 -12 59 -31 140 -44 19 -3 40 -9 45 -13 6 -5 67 -16 138 -26 70 -9 127
-22 127 -27 0 -10 -102 -3 -133 9 -13 5 -16 2 -11 -10 7 -19 -3 -20 -66 -5
-51 12 -139 2 -105 -12 11 -4 32 -8 47 -8 15 -1 33 -7 40 -14 7 -8 19 -12 28
-10 8 2 26 -1 40 -6 22 -9 20 -10 -12 -5 -41 7 -54 -11 -15 -20 12 -3 -3 -3
-33 -1 -77 6 -46 -9 75 -35 54 -11 101 -23 104 -26 8 -8 -105 -4 -114 5 -6 5
-30 11 -55 14 l-45 6 40 -19 c22 -11 65 -24 95 -30 97 -20 123 -30 60 -25 -30
3 -70 8 -87 11 -29 6 -33 4 -33 -16 0 -13 -5 -20 -12 -17 -7 2 -13 14 -12 26
0 16 -5 21 -23 21 -23 0 -27 -18 -8 -32 7 -5 6 -11 0 -15 -6 -5 -12 -19 -12
-32 -1 -13 -7 -27 -12 -31 -7 -3 -3 -13 9 -23 20 -17 28 -43 10 -32 -5 3 -10
3 -11 -2 0 -4 -2 -18 -3 -30 -3 -22 3 -24 92 -40 17 -3 32 -9 32 -13 0 -12 54
-19 61 -8 4 7 13 7 24 1 15 -9 12 -11 -15 -16 -18 -4 -51 -5 -74 -2 -22 3 -35
2 -28 -1 18 -8 4 -24 -15 -17 -12 5 -15 2 -10 -10 5 -14 0 -17 -28 -17 -19 0
-35 5 -35 10 0 6 5 10 12 10 8 0 8 3 3 9 -14 13 -125 18 -122 6 1 -5 12 -9 24
-7 15 2 24 -4 28 -19 5 -14 13 -19 26 -16 11 3 27 -2 36 -11 12 -13 17 -14 21
-4 4 13 61 8 95 -10 14 -7 15 -11 5 -22 -7 -7 -26 -16 -41 -20 -23 -5 -28 -4
-25 11 2 10 8 21 13 25 6 4 0 8 -12 8 -12 0 -23 -5 -25 -12 -6 -18 -49 -18
-46 1 2 11 -4 15 -20 13 -13 -2 -31 2 -40 10 -13 11 -14 11 -7 -1 6 -10 4 -13
-6 -9 -8 3 -23 0 -34 -8 -10 -8 -15 -14 -9 -15 5 0 17 -2 27 -4 9 -2 15 1 11
6 -3 5 -1 9 4 9 16 0 24 -33 10 -42 -8 -6 -4 -7 11 -3 16 5 21 4 17 -4 -4 -6
-15 -11 -24 -11 -13 0 -13 -3 5 -15 11 -8 23 -26 25 -40 4 -21 1 -25 -18 -25
-12 0 -31 -3 -41 -6 -13 -4 -14 -3 -5 4 11 8 11 10 0 14 -9 4 -14 -2 -16 -16
-1 -18 9 -24 71 -44 40 -12 83 -20 97 -17 19 4 21 4 6 -3 -17 -7 -15 -10 13
-22 28 -11 30 -15 18 -27 -8 -8 -31 -15 -51 -15 -20 0 -36 -3 -37 -6 -5 -44
-4 -49 10 -45 9 2 30 -1 46 -6 21 -7 24 -10 10 -10 -18 -2 -19 -2 -2 -12 9 -5
17 -16 17 -24 0 -7 6 -16 13 -18 6 -3 -4 -3 -23 0 -19 3 -43 10 -54 15 -15 8
-16 12 -5 20 10 7 7 7 -9 3 -13 -4 -28 -2 -35 3 -8 7 -19 5 -34 -8 -18 -14
-20 -20 -10 -33 25 -31 101 -77 127 -77 16 0 55 -14 88 -30 34 -17 70 -30 81
-30 12 0 21 -3 21 -8 0 -4 -18 -7 -39 -7 -22 0 -35 2 -30 6 14 8 -80 34 -113
30 -25 -2 -134 35 -190 65 -14 8 -33 14 -42 14 -9 0 -16 5 -16 11 0 5 -5 7
-10 4 -11 -7 -81 15 -91 28 -3 4 -16 10 -29 12 -13 2 -26 8 -29 13 -9 13 -104
47 -121 43 -8 -1 -12 0 -8 5 10 10 -42 36 -60 29 -7 -3 -25 4 -39 15 -35 28
-136 26 -127 -2 3 -12 0 -18 -10 -18 -13 0 -15 7 -11 31 5 30 5 31 -25 24 -19
-4 -30 -3 -30 4 0 6 5 11 11 11 8 0 7 5 -1 15 -10 12 -15 13 -21 3 -4 -6 -5
-16 -2 -21 3 -5 -7 -1 -21 9 -21 13 -24 19 -14 26 8 6 3 7 -17 3 -16 -4 -33
-12 -37 -18 -5 -7 -8 -4 -8 10 0 12 7 23 18 26 9 2 -2 8 -25 12 -39 7 -48 15
-44 38 1 5 -3 6 -9 2 -6 -4 -16 -2 -23 3 -7 6 -14 10 -17 10 -36 -5 -97 48
-120 102 -12 28 -16 30 -44 24 -17 -3 -28 -3 -24 1 4 4 1 14 -7 21 -7 8 -11
22 -8 32 3 14 -2 18 -24 17 -21 0 -27 4 -25 17 1 10 -6 19 -18 23 -13 4 -19
12 -16 21 3 8 -1 14 -8 14 -9 0 -12 9 -8 27 4 22 2 25 -13 19 -11 -4 -22 0
-31 11 -8 11 -13 13 -14 6 0 -18 -32 -16 -56 2 -10 8 -36 15 -56 15 -20 0 -43
7 -52 15 -8 8 -22 15 -31 15 -9 0 -24 4 -33 9 -9 4 -35 11 -57 15 -37 6 -39 5
-21 -9 31 -24 10 -29 -22 -5 -17 12 -35 20 -40 16 -5 -3 -17 6 -27 20 -9 14
-19 23 -22 20 -3 -3 -12 1 -20 9 -8 8 -28 15 -44 15 -16 0 -29 5 -29 10 0 6
-11 8 -25 4 -19 -5 -31 -1 -45 16 -13 15 -20 18 -20 9 0 -12 -2 -12 -9 -1 -4
8 -19 13 -32 12 -13 -1 -33 -1 -44 0 l-20 1 20 9 c13 5 -22 9 -97 9 -126 1
-150 -8 -107 -41 13 -10 38 -30 55 -44 37 -30 99 -64 117 -64 7 0 19 -6 25
-12 7 -7 28 -11 47 -9 22 1 41 -3 51 -13 14 -15 11 -20 -9 -17 -5 1 -6 -3 -2
-9 3 -5 -2 -13 -12 -17 -10 -4 -30 -18 -44 -31 -15 -14 -29 -24 -33 -24 -3 1
-20 -5 -38 -13 -18 -7 -45 -11 -61 -8 -23 5 -26 3 -21 -13 4 -11 4 -16 -1 -12
-4 4 -20 1 -36 -7 -15 -8 -35 -15 -44 -15 -10 0 -30 -14 -45 -30 -16 -17 -31
-31 -34 -30 -21 1 -26 -2 -26 -19 0 -10 -7 -22 -16 -25 -24 -9 -31 -7 -14 4
13 8 12 10 -2 10 -10 0 -18 -4 -18 -10 0 -5 -6 -10 -12 -10 -7 0 -53 -34 -103
-76 -49 -41 -102 -77 -117 -81 -15 -3 -25 -10 -22 -17 3 -8 -8 -12 -32 -13
-21 -1 -45 -9 -57 -21 -12 -11 -31 -22 -42 -24 -11 -2 -20 -10 -20 -17 0 -8
-11 -18 -25 -22 -14 -3 -48 -18 -76 -33 -29 -14 -59 -26 -67 -26 -9 0 -19 -5
-22 -10 -3 -5 -17 -10 -30 -10 -13 0 -45 -11 -71 -25 -26 -14 -55 -25 -65 -25
-10 0 -24 -9 -32 -20 -8 -12 -20 -18 -30 -15 -8 4 -18 2 -22 -4 -3 -6 -15 -11
-26 -11 -13 0 -18 -4 -13 -12 5 -8 -2 -9 -24 -5 -19 4 -32 2 -32 -3 0 -6 -11
-10 -24 -10 -13 0 -36 -6 -51 -14 -16 -8 -59 -20 -97 -26 -37 -7 -68 -16 -68
-21 0 -5 -12 -9 -26 -9 -14 0 -40 -7 -57 -15 -18 -8 -50 -19 -72 -24 -22 -5
-51 -13 -65 -16 -17 -5 -21 -4 -12 3 10 7 4 11 -23 16 -23 5 -42 3 -51 -5 -8
-7 -60 -13 -126 -15 -73 -2 -104 0 -88 5 22 8 20 9 -17 10 l-43 1 0 -675 0
-675 2560 0 2560 0 0 2515 0 2515 -2560 0 -2560 0 0 -1126z m2660 450 c0 -2
-7 -4 -15 -4 -8 0 -15 4 -15 10 0 5 7 7 15 4 8 -4 15 -8 15 -10z m-680 -248
c0 -3 -4 -8 -10 -11 -5 -3 -10 -1 -10 4 0 6 5 11 10 11 6 0 10 -2 10 -4z
m-1545 -36 c3 -5 1 -10 -4 -10 -6 0 -11 5 -11 10 0 6 2 10 4 10 3 0 8 -4 11
-10z m2755 -174 c0 -2 -7 -7 -16 -10 -8 -3 -12 -2 -9 4 6 10 25 14 25 6z m20
-70 c0 -3 -4 -8 -10 -11 -5 -3 -10 -1 -10 4 0 6 5 11 10 11 6 0 10 -2 10 -4z
m630 -136 c0 -5 -4 -10 -10 -10 -5 0 -10 5 -10 10 0 6 5 10 10 10 6 0 10 -4
10 -10z m-1966 -45 c-7 -16 -24 -21 -24 -6 0 8 7 13 27 20 1 1 0 -6 -3 -14z
m-424 -35 c0 -5 -4 -10 -10 -10 -5 0 -10 5 -10 10 0 6 5 10 10 10 6 0 10 -4
10 -10z m-415 -50 c3 -5 1 -10 -4 -10 -6 0 -11 5 -11 10 0 6 2 10 4 10 3 0 8
-4 11 -10z m-842 -86 c26 -9 47 -20 47 -25 0 -5 -2 -9 -4 -9 -10 0 -96 40 -96
45 0 7 1 7 53 -11z m1352 -14 c-3 -5 -12 -10 -18 -10 -7 0 -6 4 3 10 19 12 23
12 15 0z m-475 -40 c0 -5 -4 -10 -10 -10 -5 0 -10 5 -10 10 0 6 5 10 10 10 6
0 10 -4 10 -10z m150 -10 c0 -5 -4 -10 -10 -10 -5 0 -10 5 -10 10 0 6 5 10 10
10 6 0 10 -4 10 -10z m-730 -20 c8 -5 11 -10 5 -10 -5 0 -17 5 -25 10 -8 5
-10 10 -5 10 6 0 17 -5 25 -10z m3270 -34 c0 -3 -4 -8 -10 -11 -5 -3 -10 -1
-10 4 0 6 5 11 10 11 6 0 10 -2 10 -4z m-2007 -28 c4 -12 4 -24 2 -27 -3 -2
-5 1 -5 7 0 24 -21 11 -31 -18 -6 -16 -15 -27 -20 -24 -5 3 0 18 11 34 11 15
20 33 20 39 0 20 18 11 23 -11z m-263 -38 c0 -5 -4 -10 -10 -10 -5 0 -10 5
-10 10 0 6 5 10 10 10 6 0 10 -4 10 -10z m-495 -10 c-3 -5 -10 -10 -16 -10 -5
0 -9 5 -9 10 0 6 7 10 16 10 8 0 12 -4 9 -10z m135 0 c0 -5 -4 -10 -10 -10 -5
0 -10 5 -10 10 0 6 5 10 10 10 6 0 10 -4 10 -10z m550 -6 c0 -8 -5 -12 -10 -9
-6 4 -8 11 -5 16 9 14 15 11 15 -7z m1905 -34 c8 -13 -5 -13 -25 0 -13 8 -13
10 2 10 9 0 20 -4 23 -10z m-2205 -21 c0 -5 -4 -9 -10 -9 -5 0 -10 7 -10 16 0
8 5 12 10 9 6 -3 10 -10 10 -16z m180 11 c0 -5 -4 -10 -9 -10 -6 0 -13 5 -16
10 -3 6 1 10 9 10 9 0 16 -4 16 -10z m-800 -20 c0 -5 -9 -10 -20 -10 -11 0
-20 5 -20 10 0 6 9 10 20 10 11 0 20 -4 20 -10z m-137 -41 c-8 -8 -16 -8 -30
0 -16 9 -14 10 12 11 21 0 26 -3 18 -11z m-263 -9 c0 -5 -4 -10 -10 -10 -5 0
-10 5 -10 10 0 6 5 10 10 10 6 0 10 -4 10 -10z m470 -10 c0 -5 -4 -10 -10 -10
-5 0 -10 5 -10 10 0 6 5 10 10 10 6 0 10 -4 10 -10z m3560 -20 c0 -5 -4 -10
-10 -10 -5 0 -10 5 -10 10 0 6 5 10 10 10 6 0 10 -4 10 -10z m200 -70 c0 -5
-4 -10 -10 -10 -5 0 -10 5 -10 10 0 6 5 10 10 10 6 0 10 -4 10 -10z m-4210
-40 c0 -5 -7 -10 -15 -10 -8 0 -15 5 -15 10 0 6 7 10 15 10 8 0 15 -4 15 -10z
m-70 -20 c12 -8 10 -10 -10 -9 -14 0 -34 4 -45 9 -17 7 -16 9 10 9 17 0 37 -4
45 -9z m-230 -14 c0 -3 -4 -8 -10 -11 -5 -3 -10 -1 -10 4 0 6 5 11 10 11 6 0
10 -2 10 -4z m230 -26 c0 -5 -9 -10 -19 -10 -11 0 -23 5 -26 10 -4 6 5 10 19
10 14 0 26 -4 26 -10z m3250 -30 c0 -5 -4 -10 -10 -10 -5 0 -10 5 -10 10 0 6
5 10 10 10 6 0 10 -4 10 -10z m-3020 -20 c0 -5 -4 -10 -10 -10 -5 0 -10 5 -10
10 0 6 5 10 10 10 6 0 10 -4 10 -10z m3440 -80 c0 -5 -5 -10 -11 -10 -5 0 -7
5 -4 10 3 6 8 10 11 10 2 0 4 -4 4 -10z m-3873 -26 c-3 -3 -12 -4 -19 -1 -8 3
-5 6 6 6 11 1 17 -2 13 -5z m4163 -54 c0 -5 -5 -10 -11 -10 -5 0 -7 5 -4 10 3
6 8 10 11 10 2 0 4 -4 4 -10z m-580 -10 c0 -5 -2 -10 -4 -10 -3 0 -8 5 -11 10
-3 6 -1 10 4 10 6 0 11 -4 11 -10z m830 -20 c0 -5 -4 -10 -10 -10 -5 0 -10 5
-10 10 0 6 5 10 10 10 6 0 10 -4 10 -10z m-420 -40 c0 -5 -2 -10 -4 -10 -3 0
-8 5 -11 10 -3 6 -1 10 4 10 6 0 11 -4 11 -10z m-3960 -19 c0 -6 -17 -7 -37
-4 -52 8 -54 13 -5 13 23 0 42 -4 42 -9z m63 -8 c-7 -2 -19 -2 -25 0 -7 3 -2
5 12 5 14 0 19 -2 13 -5z m230 -30 c-7 -2 -19 -2 -25 0 -7 3 -2 5 12 5 14 0
19 -2 13 -5z m-203 -33 c0 -5 -9 -10 -20 -10 -11 0 -20 5 -20 10 0 6 9 10 20
10 11 0 20 -4 20 -10z m90 0 c0 -5 -9 -10 -20 -10 -11 0 -20 5 -20 10 0 6 9
10 20 10 11 0 20 -4 20 -10z m355 -20 c-3 -5 -32 -9 -63 -8 l-57 1 50 7 c28 4
56 8 63 8 7 1 10 -2 7 -8z m4195 -20 c0 -5 -4 -10 -10 -10 -5 0 -10 5 -10 10
0 6 5 10 10 10 6 0 10 -4 10 -10z m-310 -10 c0 -5 -4 -10 -10 -10 -5 0 -10 5
-10 10 0 6 5 10 10 10 6 0 10 -4 10 -10z m420 -34 c0 -3 -4 -8 -10 -11 -5 -3
-10 -1 -10 4 0 6 5 11 10 11 6 0 10 -2 10 -4z m-40 -16 c0 -5 -4 -10 -10 -10
-5 0 -10 5 -10 10 0 6 5 10 10 10 6 0 10 -4 10 -10z m-4375 -22 c-42 -7 -187
-9 -170 -2 6 2 51 8 100 12 95 8 138 3 70 -10z m-385 -8 c0 -5 -4 -10 -10 -10
-5 0 -10 5 -10 10 0 6 5 10 10 10 6 0 10 -4 10 -10z m30 0 c0 -5 -5 -10 -11
-10 -5 0 -7 5 -4 10 3 6 8 10 11 10 2 0 4 -4 4 -10z m4168 -1 c-2 -6 -7 -10
-11 -10 -4 1 -17 1 -29 2 -22 1 -22 1 2 9 36 11 42 11 38 -1z m322 -9 c0 -5
-4 -10 -10 -10 -5 0 -10 5 -10 10 0 6 5 10 10 10 6 0 10 -4 10 -10z m-4370
-10 c-19 -13 -30 -13 -30 0 0 6 10 10 23 10 18 0 19 -2 7 -10z m180 -10 c0 -5
-4 -10 -10 -10 -5 0 -10 5 -10 10 0 6 5 10 10 10 6 0 10 -4 10 -10z m1577 -46
c-3 -3 -12 -4 -19 -1 -8 3 -5 6 6 6 11 1 17 -2 13 -5z m2488 -4 c15 -7 9 -9
-25 -9 -25 0 -52 4 -60 9 -19 13 56 13 85 0z m40 -40 c4 -7 -3 -8 -22 -4 -38
9 -42 14 -10 14 14 0 29 -5 32 -10z m-3425 -10 c-8 -5 -19 -10 -25 -10 -5 0
-3 5 5 10 8 5 20 10 25 10 6 0 3 -5 -5 -10z m3247 4 c-3 -3 -12 -4 -19 -1 -8
3 -5 6 6 6 11 1 17 -2 13 -5z m-3162 -44 c-11 -5 -27 -9 -35 -9 -9 0 -8 4 5 9
11 5 27 9 35 9 9 0 8 -4 -5 -9z m3048 -33 c41 -15 40 -30 -2 -21 -20 4 -23 3
-11 -5 8 -6 23 -11 32 -11 12 0 15 -5 11 -16 -4 -11 -14 -14 -37 -11 -17 3
-50 9 -74 13 -50 8 -51 26 -1 35 19 4 27 7 19 8 -13 1 -13 2 0 11 19 12 18 12
63 -3z m-1923 -16 c0 -5 -11 -8 -25 -7 -33 1 -33 16 0 16 14 0 25 -4 25 -9z
m-915 -21 c-3 -5 -10 -10 -16 -10 -5 0 -9 5 -9 10 0 6 7 10 16 10 8 0 12 -4 9
-10z m2950 0 c3 -5 -1 -10 -9 -10 -9 0 -16 5 -16 10 0 6 4 10 9 10 6 0 13 -4
16 -10z m-1635 -60 c0 -5 -5 -10 -11 -10 -5 0 -7 5 -4 10 3 6 8 10 11 10 2 0
4 -4 4 -10z m-100 -40 c0 -5 -2 -10 -4 -10 -3 0 -8 5 -11 10 -3 6 -1 10 4 10
6 0 11 -4 11 -10z m1490 0 c0 -5 -4 -10 -10 -10 -5 0 -10 5 -10 10 0 6 5 10
10 10 6 0 10 -4 10 -10z m43 -17 c-7 -2 -19 -2 -25 0 -7 3 -2 5 12 5 14 0 19
-2 13 -5z m-1363 -49 c0 -8 -5 -12 -10 -9 -6 4 -8 11 -5 16 9 14 15 11 15 -7z
m1585 -14 c13 -6 15 -9 5 -9 -8 0 -22 4 -30 9 -18 12 -2 12 25 0z m-60 -10
c18 -8 17 -9 -7 -9 -15 -1 -30 4 -33 9 -7 12 12 12 40 0z m-120 -30 c-3 -5
-13 -10 -21 -10 -8 0 -14 5 -14 10 0 6 9 10 21 10 11 0 17 -4 14 -10z m-2385
-20 c0 -5 -4 -10 -10 -10 -5 0 -10 5 -10 10 0 6 5 10 10 10 6 0 10 -4 10 -10z
m220 -4 c0 -19 -14 -33 -30 -29 -24 6 -15 33 11 33 10 0 19 -2 19 -4z m-110
-10 c0 -3 -4 -8 -10 -11 -5 -3 -10 -1 -10 4 0 6 5 11 10 11 6 0 10 -2 10 -4z
m2130 -16 c0 -5 -7 -10 -16 -10 -8 0 -12 5 -9 10 3 6 10 10 16 10 5 0 9 -4 9
-10z m417 4 c-3 -3 -12 -4 -19 -1 -8 3 -5 6 6 6 11 1 17 -2 13 -5z m-1557 -14
c0 -5 -4 -10 -10 -10 -5 0 -10 5 -10 10 0 6 5 10 10 10 6 0 10 -4 10 -10z
m1182 -22 c-9 -9 -15 -9 -24 0 -9 9 -7 12 12 12 19 0 21 -3 12 -12z m168 -2
c0 -3 -4 -8 -10 -11 -5 -3 -10 -1 -10 4 0 6 5 11 10 11 6 0 10 -2 10 -4z m600
0 c0 -11 -19 -15 -25 -6 -3 5 1 10 9 10 9 0 16 -2 16 -4z m-4195 -24 c-3 -3
-11 0 -18 7 -9 10 -8 11 6 5 10 -3 15 -9 12 -12z m1125 -12 c0 -5 -4 -10 -10
-10 -5 0 -10 5 -10 10 0 6 5 10 10 10 6 0 10 -4 10 -10z m1170 -6 c0 -8 -4
-12 -10 -9 -5 3 -10 10 -10 16 0 5 5 9 10 9 6 0 10 -7 10 -16z m1393 9 c-7 -2
-19 -2 -25 0 -7 3 -2 5 12 5 14 0 19 -2 13 -5z m-2373 -8 c0 -5 -80 -45 -89
-45 -8 1 73 50 82 50 4 0 7 -2 7 -5z m2178 -13 c3 -9 -2 -13 -14 -10 -9 1 -19
9 -22 16 -3 9 2 13 14 10 9 -1 19 -9 22 -16z m192 -11 c0 -6 -9 -9 -19 -8 -11
0 -17 5 -15 9 7 11 34 10 34 -1z m-2514 -23 c-10 -6 -20 -7 -24 -3 -9 8 20 25
31 18 5 -3 2 -10 -7 -15z m2502 -15 c37 -9 39 -26 1 -18 -61 12 -99 26 -94 35
3 5 20 4 38 -2 17 -5 42 -12 55 -15z m-184 5 c-2 -4 4 -11 13 -17 17 -10 17
-10 1 -11 -10 0 -27 9 -38 20 -20 20 -20 20 4 18 14 -1 23 -6 20 -10z m283 6
c-3 -3 -12 -4 -19 -1 -8 3 -5 6 6 6 11 1 17 -2 13 -5z m-2757 -13 c0 -5 -7
-12 -16 -15 -14 -5 -15 -4 -4 9 14 17 20 19 20 6z m2425 -2 c12 -19 -5 -23
-22 -6 -16 16 -16 17 -1 17 9 0 20 -5 23 -11z m-3866 -3 c-12 -10 -59 -15 -59
-6 0 5 14 10 32 10 17 0 29 -2 27 -4z m-86 -13 c-7 -2 -19 -2 -25 0 -7 3 -2 5
12 5 14 0 19 -2 13 -5z m175 0 c-10 -2 -26 -2 -35 0 -10 3 -2 5 17 5 19 0 27
-2 18 -5z m2737 -3 c3 -5 1 -10 -4 -10 -6 0 -11 5 -11 10 0 6 2 10 4 10 3 0 8
-4 11 -10z m101 -37 c-11 -11 -19 6 -11 24 8 17 8 17 12 0 3 -10 2 -21 -1 -24z
m1464 33 c0 -11 -19 -15 -25 -6 -3 5 1 10 9 10 9 0 16 -2 16 -4z m-4490 -16
c-37 -12 -82 -12 -75 0 3 6 27 10 53 9 38 -1 42 -2 22 -9z m1790 -4 c0 -2 -20
-16 -44 -30 -25 -14 -51 -32 -58 -39 -7 -7 -42 -35 -78 -62 -36 -28 -68 -54
-72 -60 -5 -6 -8 -6 -8 1 0 6 28 33 62 59 35 27 67 53 73 57 50 42 125 86 125
74z m-1196 -14 c2 -4 -4 -9 -15 -9 -11 -1 -17 2 -14 8 7 11 22 12 29 1z m-254
-22 c0 -5 -10 -10 -22 -10 -19 0 -20 2 -8 10 19 13 30 13 30 0z m156 -1 c4 -6
21 -8 43 -5 28 4 24 1 -19 -14 -37 -13 -58 -16 -65 -9 -7 7 -3 8 10 3 11 -4
16 -3 12 1 -4 5 -23 8 -42 7 -44 -3 -45 5 -2 17 44 13 55 13 63 0z m2474 -29
c0 -5 -5 -10 -11 -10 -5 0 -7 5 -4 10 3 6 8 10 11 10 2 0 4 -4 4 -10z m-2910
-10 c0 -5 -10 -10 -22 -10 -19 0 -20 2 -8 10 19 13 30 13 30 0z m260 0 c0 -5
-4 -10 -10 -10 -5 0 -10 5 -10 10 0 6 5 10 10 10 6 0 10 -4 10 -10z m3747 4
c-3 -3 -12 -4 -19 -1 -8 3 -5 6 6 6 11 1 17 -2 13 -5z m346 -11 c-7 -2 -19 -2
-25 0 -7 3 -2 5 12 5 14 0 19 -2 13 -5z m-348 -13 c4 -6 -5 -10 -20 -10 -15 0
-24 4 -20 10 3 6 12 10 20 10 8 0 17 -4 20 -10z m395 0 c0 -5 -4 -10 -9 -10
-6 0 -13 5 -16 10 -3 6 1 10 9 10 9 0 16 -4 16 -10z m-4356 -41 c-3 -5 -10 -7
-15 -3 -5 3 -7 10 -3 15 3 5 10 7 15 3 5 -3 7 -10 3 -15z m4016 11 c0 -5 -4
-10 -10 -10 -5 0 -10 5 -10 10 0 6 5 10 10 10 6 0 10 -4 10 -10z m-3060 -15
c0 -2 -10 -9 -22 -15 -22 -11 -22 -10 -4 4 21 17 26 19 26 11z m3147 -1 c-3
-3 -12 -4 -19 -1 -8 3 -5 6 6 6 11 1 17 -2 13 -5z m-812 -22 c-3 -3 -11 0 -18
7 -9 10 -8 11 6 5 10 -3 15 -9 12 -12z m-3267 -22 c-9 -13 -23 -20 -43 -19
-23 1 -25 3 -7 6 12 2 22 11 22 19 0 8 9 14 20 14 18 0 19 -2 8 -20z m3942 10
c12 -8 9 -10 -12 -10 -16 0 -28 5 -28 10 0 13 20 13 40 0z m270 0 c0 -5 -5
-10 -11 -10 -5 0 -7 5 -4 10 3 6 8 10 11 10 2 0 4 -4 4 -10z m-4483 -6 c-3 -3
-12 -4 -19 -1 -8 3 -5 6 6 6 11 1 17 -2 13 -5z m1766 -9 c-3 -9 -8 -14 -10
-11 -3 3 -2 9 2 15 9 16 15 13 8 -4z m1897 -5 c0 -5 -4 -10 -10 -10 -5 0 -10
5 -10 10 0 6 5 10 10 10 6 0 10 -4 10 -10z m398 1 c54 -27 93 -39 118 -36 37
5 64 -3 64 -18 0 -8 -3 -8 -11 0 -13 13 -42 5 -33 -9 4 -6 -1 -6 -13 0 -12 7
-25 7 -34 1 -7 -5 -18 -9 -24 -9 -5 0 -4 4 4 9 9 6 -3 15 -43 30 -31 11 -61
21 -67 21 -6 0 -7 5 -4 10 8 12 20 13 43 1z m-2398 -5 c0 -3 -4 -8 -10 -11 -5
-3 -10 -1 -10 4 0 6 5 11 10 11 6 0 10 -2 10 -4z m1565 -16 c3 -5 1 -10 -4
-10 -6 0 -11 5 -11 10 0 6 2 10 4 10 3 0 8 -4 11 -10z m1120 -2 c22 -6 44 -11
49 -9 5 1 2 -8 -6 -21 -17 -24 -33 -25 -80 -5 -28 12 -37 27 -17 27 5 0 7 5 4
10 -8 13 1 13 50 -2z m-3940 -5 c-11 -3 -24 -9 -29 -14 -13 -12 -36 -12 -36 0
0 10 30 18 65 18 l20 1 -20 -5z m4055 -13 c0 -5 -2 -10 -4 -10 -3 0 -8 5 -11
10 -3 6 -1 10 4 10 6 0 11 -4 11 -10z m190 0 c0 -5 -2 -10 -4 -10 -3 0 -8 5
-11 10 -3 6 -1 10 4 10 6 0 11 -4 11 -10z m-4383 -21 c-14 -8 -22 -8 -30 0 -8
8 -3 11 19 11 25 -1 27 -2 11 -11z m4713 -19 c0 -5 -4 -10 -9 -10 -6 0 -13 5
-16 10 -3 6 1 10 9 10 9 0 16 -4 16 -10z m-4710 -10 c0 -5 -7 -10 -16 -10 -8
0 -12 5 -9 10 3 6 10 10 16 10 5 0 9 -4 9 -10z m4075 0 c4 -6 -5 -10 -19 -10
-14 0 -26 5 -26 10 0 6 9 10 19 10 11 0 23 -4 26 -10z m-3145 -10 c0 -5 -5
-10 -11 -10 -5 0 -7 5 -4 10 3 6 8 10 11 10 2 0 4 -4 4 -10z m320 -4 c0 -3 -4
-8 -10 -11 -5 -3 -10 -1 -10 4 0 6 5 11 10 11 6 0 10 -2 10 -4z m2407 -2 c-3
-3 -12 -4 -19 -1 -8 3 -5 6 6 6 11 1 17 -2 13 -5z m-612 -14 c3 -5 2 -10 -4
-10 -5 0 -13 5 -16 10 -3 6 -2 10 4 10 5 0 13 -4 16 -10z m-2115 -10 c0 -5 -5
-10 -11 -10 -5 0 -7 5 -4 10 3 6 8 10 11 10 2 0 4 -4 4 -10z m3194 -36 c26 -9
46 -18 44 -20 -6 -5 -93 17 -102 27 -14 13 3 11 58 -7z m-3014 -14 c0 -5 -5
-10 -11 -10 -5 0 -7 5 -4 10 3 6 8 10 11 10 2 0 4 -4 4 -10z m3130 -4 c25 -8
37 -15 27 -15 -10 -1 -15 -5 -12 -11 11 -18 -6 -11 -37 15 -16 14 -28 25 -26
25 2 0 23 -7 48 -14z m130 -46 c0 -5 -6 -10 -14 -10 -8 0 -18 5 -21 10 -3 6 3
10 14 10 12 0 21 -4 21 -10z m-113 -6 c-3 -3 -12 -4 -19 -1 -8 3 -5 6 6 6 11
1 17 -2 13 -5z m-1207 -87 c0 -4 -18 5 -40 19 -52 34 -52 41 0 12 22 -13 40
-26 40 -31z m425 33 c3 -6 -1 -7 -9 -4 -18 7 -21 14 -7 14 6 0 13 -4 16 -10z
m85 -45 c0 -8 -2 -15 -4 -15 -2 0 -6 7 -10 15 -3 8 -1 15 4 15 6 0 10 -7 10
-15z m525 -205 c3 -6 -1 -7 -9 -4 -18 7 -21 14 -7 14 6 0 13 -4 16 -10z"/>
<path d="M4413 1523 c9 -2 23 -2 30 0 6 3 -1 5 -18 5 -16 0 -22 -2 -12 -5z"/>
<path d="M2391 3954 c-17 -14 -31 -21 -31 -16 0 5 -7 13 -16 16 -9 3 -12 2 -9
-5 4 -6 -2 -13 -12 -15 -15 -4 -19 -12 -15 -30 3 -17 0 -24 -12 -24 -9 0 -16
-5 -16 -10 0 -6 -18 -33 -40 -61 -30 -39 -40 -60 -40 -88 0 -38 25 -85 40 -76
5 3 21 -17 34 -44 14 -27 37 -66 50 -86 14 -19 27 -49 31 -65 4 -17 15 -35 26
-40 10 -6 19 -19 19 -30 0 -11 23 -45 50 -75 59 -65 61 -85 20 -155 -16 -28
-30 -57 -30 -65 0 -10 -10 -15 -28 -15 -30 0 -62 -26 -62 -51 0 -12 -2 -11
-10 1 -5 8 -10 11 -10 6 0 -5 -6 -4 -12 2 -17 13 -117 -18 -129 -41 -7 -11 -6
-25 2 -39 7 -13 10 -25 8 -28 -9 -10 34 -11 44 -1 6 6 16 11 21 11 6 0 4 -5
-4 -10 -9 -6 -10 -10 -3 -10 6 0 18 7 27 15 8 8 21 12 29 9 11 -4 17 4 22 25
7 31 20 42 23 19 1 -7 3 -24 4 -38 3 -24 5 -25 91 -28 58 -2 87 1 87 8 0 6 5
8 10 5 6 -4 8 -10 5 -15 -3 -5 -1 -11 5 -15 5 -3 10 0 10 7 0 8 5 6 11 -4 6
-11 22 -18 40 -18 17 0 36 -8 46 -20 18 -21 67 -27 78 -10 8 13 62 13 70 1 3
-6 -2 -14 -11 -19 -9 -5 -14 -14 -10 -21 11 -17 44 -13 49 7 4 15 5 15 6 -2 1
-12 6 -16 16 -12 8 3 15 2 15 -3 0 -5 11 -12 25 -15 16 -4 22 -11 19 -21 -5
-11 -2 -13 10 -9 11 4 19 -2 26 -20 9 -24 35 -34 65 -25 25 7 91 3 97 -6 4 -5
8 0 8 12 0 13 7 59 16 103 16 80 16 81 -7 135 -13 30 -29 53 -35 51 -8 -3 -10
3 -6 17 3 12 2 19 -2 16 -4 -4 -22 -3 -40 1 -21 5 -39 3 -50 -5 -20 -15 -91 6
-119 36 -20 22 -43 25 -50 7 -3 -7 -6 1 -6 18 -1 32 -40 100 -85 147 -46 49
-86 143 -86 202 0 30 5 57 10 60 6 3 10 13 10 22 0 17 69 89 82 85 29 -8 52
63 24 74 -8 3 -17 12 -20 21 -5 12 -1 14 15 10 20 -5 20 -5 3 14 -10 12 -20
16 -22 10 -3 -8 -9 -8 -23 0 -11 5 -18 13 -15 17 2 4 -5 19 -15 32 -19 23 -19
23 -9 3 17 -37 4 -26 -21 15 -77 131 -104 157 -167 166 -73 10 -89 7 -121 -20z
m89 1 c0 -2 -18 -5 -40 -7 -45 -4 -50 -1 -18 11 19 7 58 4 58 -4z m110 -895
c0 -5 -5 -10 -11 -10 -5 0 -7 5 -4 10 3 6 8 10 11 10 2 0 4 -4 4 -10z m-110
-80 c0 -5 -4 -10 -10 -10 -5 0 -10 5 -10 10 0 6 5 10 10 10 6 0 10 -4 10 -10z
m470 -100 c0 -5 -4 -10 -10 -10 -5 0 -10 5 -10 10 0 6 5 10 10 10 6 0 10 -4
10 -10z"/>
<path d="M3348 3323 c7 -3 16 -2 19 1 4 3 -2 6 -13 5 -11 0 -14 -3 -6 -6z"/>
<path d="M2360 2889 c0 -5 9 -9 20 -9 11 0 20 2 20 4 0 2 -9 6 -20 9 -11 3
-20 1 -20 -4z"/>
<path d="M2525 2890 c3 -5 8 -10 11 -10 2 0 4 5 4 10 0 6 -5 10 -11 10 -5 0
-7 -4 -4 -10z"/>
<path d="M283 2803 c9 -2 25 -2 35 0 9 3 1 5 -18 5 -19 0 -27 -2 -17 -5z"/>
<path d="M1010 2560 c0 -6 7 -10 15 -10 8 0 15 2 15 4 0 2 -7 6 -15 10 -8 3
-15 1 -15 -4z"/>
<path d="M4111 2446 c11 -9 69 -15 64 -6 -3 6 -20 10 -37 10 -17 0 -29 -2 -27
-4z"/>
<path d="M1000 2370 c-12 -8 -9 -10 13 -10 15 0 27 5 27 10 0 13 -20 13 -40 0z"/>
<path d="M840 2310 c0 -5 5 -10 10 -10 6 0 10 5 10 10 0 6 -4 10 -10 10 -5 0
-10 -4 -10 -10z"/>
<path d="M1449 2153 c-13 -15 -12 -15 9 -4 23 12 28 21 13 21 -5 0 -15 -7 -22
-17z"/>
<path d="M1460 2130 c-9 -6 -10 -10 -3 -10 6 0 15 5 18 10 8 12 4 12 -15 0z"/>
<path d="M1395 2120 c3 -5 8 -10 11 -10 2 0 4 5 4 10 0 6 -5 10 -11 10 -5 0
-7 -4 -4 -10z"/>
<path d="M1340 2060 c-9 -6 -10 -10 -3 -10 6 0 15 5 18 10 8 12 4 12 -15 0z"/>
<path d="M4020 2005 c7 -8 16 -12 21 -9 13 8 1 24 -18 24 -13 0 -13 -3 -3 -15z"/>
<path d="M1240 1970 c0 -5 5 -10 11 -10 5 0 7 5 4 10 -3 6 -8 10 -11 10 -2 0
-4 -4 -4 -10z"/>
<path d="M1055 1960 c3 -5 17 -10 30 -10 13 0 27 5 30 10 4 6 -8 10 -30 10
-22 0 -34 -4 -30 -10z"/>
<path d="M4080 1849 c0 -5 5 -7 10 -4 6 3 10 8 10 11 0 2 -4 4 -10 4 -5 0 -10
-5 -10 -11z"/>
<path d="M3935 1831 c-11 -19 64 -44 86 -29 11 8 10 9 -3 4 -10 -3 -18 -1 -18
4 0 6 -7 10 -15 10 -8 0 -15 5 -15 10 0 13 -27 13 -35 1z"/>
<path d="M3870 1822 c0 -5 7 -15 15 -22 8 -7 15 -9 15 -6 0 4 -7 14 -15 22 -8
9 -15 11 -15 6z"/>
<path d="M945 1810 c-19 -8 -19 -9 2 -9 12 -1 25 4 28 9 7 12 -2 12 -30 0z"/>
<path d="M838 1783 c12 -2 32 -2 45 0 12 2 2 4 -23 4 -25 0 -35 -2 -22 -4z"/>
<path d="M3947 1783 c-4 -3 -7 -15 -7 -25 0 -10 -4 -18 -10 -18 -5 0 -14 -10
-21 -21 -7 -15 -8 -19 0 -15 6 4 20 2 31 -4 15 -8 20 -8 20 1 0 9 24 10 90 6
60 -5 90 -3 90 4 0 5 -4 7 -10 4 -5 -3 -10 -1 -10 4 0 6 -9 11 -19 11 -11 0
-21 4 -23 8 -1 5 -17 12 -34 15 -26 5 -33 2 -37 -12 -5 -19 -54 -34 -63 -20
-7 12 17 35 42 42 16 4 16 5 2 6 -10 0 -18 6 -18 11 0 11 -13 13 -23 3z"/>
<path d="M3842 1759 c2 -6 7 -10 11 -10 4 1 14 1 23 1 8 0 12 5 9 10 -8 13
-48 13 -43 -1z"/>
<path d="M948 1733 c7 -3 16 -2 19 1 4 3 -2 6 -13 5 -11 0 -14 -3 -6 -6z"/>
<path d="M3990 1672 c0 -5 14 -12 30 -14 19 -3 29 -1 27 6 -4 14 -57 21 -57 8z"/>
<path d="M4075 1670 c3 -6 13 -10 21 -10 8 0 12 -4 9 -10 -8 -12 5 -13 24 -1
9 6 10 11 2 15 -6 4 -11 5 -11 2 0 -3 -12 -1 -26 4 -16 7 -23 7 -19 0z"/>
<path d="M4008 1613 c7 -3 16 -2 19 1 4 3 -2 6 -13 5 -11 0 -14 -3 -6 -6z"/>
</g>
</svg>
